<svg xmlns="http://www.w3.org/2000/svg" xmlns:xlink="http://www.w3.org/1999/xlink" version="1.0" x="0px" y="0px" width="100px" height="100px" viewBox="0 0 100 100" overflow="" enable-background="new 0 0 100 100" xml:space="preserve">
    <path d="M85.87,88.664c-4.322,0-7.867-3.339-8.188-7.58l-0.068-0.633c-0.987-16.012-8.757-28.954-20.319-37.816 c0.04-0.388,0.064-0.782,0.064-1.187c0-2.265-0.703-4.369-1.891-6.106l13.891-13.891l0.698,0.697c0.383,0.383,1.003,0.383,1.389,0 l1.482-1.475c0.383-0.388,0.383-1.008,0-1.391l-3.447-3.445l3.227-3.185c0.295,0.226,0.704,0.203,0.954-0.076 c0.637-0.54,1.647-0.399,2.076-0.307l0.358,0.366c0.408,0.416,1.068,0.428,1.493,0.018c0.414-0.4,0.423-1.076,0.015-1.487 L67.398,0.713C66.984,0.298,66.324,0.29,65.909,0.7c-0.42,0.408-0.429,1.072-0.018,1.483l0.346,0.36 c0.08,0.448,0.211,1.512-0.409,2.127c-0.265,0.29-0.245,0.736,0.044,1c0.006,0.005,0.013,0.005,0.017,0.008l-3.303,3.262 l-3.457-3.459c-0.384-0.382-1.01-0.382-1.393,0l-1.478,1.482c-0.384,0.381-0.384,1.003,0,1.39l0.708,0.71L27.162,38.869 l-0.313-0.316c-0.6-0.595-1.565-0.59-2.162,0.009l-2.866,2.864c-1.033,1.03-1.807,2.221-2.328,3.488l-7.617,0.668 c-0.445,0.104-1.272,1.132-1.253,3.397c0.018,2.266,0.808,3.297,1.253,3.404l7.408,0.644l-4.006,4.787 c-0.236,0.392-0.094,1.704,1.521,3.294c1.614,1.588,2.899,1.759,3.291,1.519l5.152-3.477l0.733,8.422 c0.106,0.443,1.138,1.271,3.401,1.251c2.268-0.017,3.295-0.806,3.401-1.251l0.754-8.659c1.26-0.522,2.439-1.291,3.466-2.317 l2.862-2.861c0.596-0.599,0.592-1.57-0.007-2.161l-0.31-0.31l0.896-0.894c1.737,1.192,3.838,1.894,6.105,1.894 c0.676,0,1.333-0.067,1.973-0.186c1.741,2.557,4.237,6.882,5.579,12.639c0.428,1.834,0.799,3.811,0.863,5.954h5.851 c1.071,0,1.938,0.865,1.938,1.934c0,1.071-0.867,1.939-1.938,1.939H27.523h-5.908c-1.513,0-2.735,1.224-2.735,2.737 c0,1.509,1.223,2.732,2.735,2.732h31.183l-0.003,0.01c-1.771,3.155-4.535,5.657-7.907,7.037c-11.488,4.706-21.246,5.298-29.23,5.9 c-1.732,0-3.14,1.404-3.14,3.136c0,1.738,1.408,3.222,3.14,3.222l70.211,0.003c2.942,0,5.328-2.389,5.328-5.326 C91.198,91.05,88.812,88.664,85.87,88.664z M64.176,9.667l2.373-2.374c0.217-0.212,0.539-0.23,0.782-0.074l0.884,0.882 c0.158,0.246,0.141,0.571-0.075,0.785l-2.373,2.372c-0.246,0.243-0.645,0.245-0.897,0l-0.693-0.697 C63.932,10.317,63.932,9.914,64.176,9.667z M24.872,45.433c-1.962,1.963-2.987,4.501-3.096,7.075 c-1.264-2.915-0.713-6.426,1.668-8.815l2.525-2.515l1.578,1.58L24.872,45.433z M47.792,43.908c-0.898,0.419-1.832,0.569-2.701,0.509 l0.005,0.003c-0.273-0.002-0.555,0.11-0.746,0.347c-0.306,0.376-0.257,0.901,0.103,1.186c0.819,0.72,1.797,1.175,2.805,1.314h0.003 c0.065,0.003,0.135,0.016,0.191,0.06c0.13,0.101,0.148,0.292,0.041,0.426c-0.069,0.082-0.167,0.122-0.265,0.117l-0.005,0.011 c-2.23,0.288-4.567-1.091-5.618-3.514c-0.804-1.879-0.656-3.896,0.224-5.429c0.521-1.061,1.455-1.992,2.695-2.559 c2.487-1.152,5.224-0.385,6.13,1.688C51.557,40.154,50.276,42.765,47.792,43.908z M51.982,30.259 c0.414,0.195,0.582,0.686,0.386,1.093c-0.201,0.408-0.688,0.579-1.093,0.383l-0.006-0.003c-1.582-0.776-3.257-1.123-4.905-1.091 l-0.011,0.011c-4.014,0.063-7.492,2.306-9.302,5.601c0,0-0.005,0.002-0.005,0.006c-0.823,1.497-1.301,3.208-1.329,5.026 l-2.633,2.635c-0.249,0.249-0.649,0.25-0.897,0l-2.756-2.755c-0.249-0.251-0.249-0.648,0-0.9L58.356,11.34 c0.214-0.214,0.541-0.234,0.78-0.079l2.947,2.95c0.159,0.245,0.138,0.565-0.074,0.782L47.927,29.077 C49.301,29.231,50.672,29.615,51.982,30.259z"/>
</svg>